<svg xmlns="http://www.w3.org/2000/svg" viewBox="0 0 100 100" fill="none">
  <!-- CrowdStrike Falcon silhouette in brand red -->
  <path d="
    M50 4
    C46 12 38 17 30 24
    C22 31 18 40 22 49
    C25 55 32 56 38 53
    C35 62 32 71 30 80
    C35 74 41 70 46 73
    C44 80 45 87 47 94
    C50 85 55 78 59 74
    C64 77 68 81 70 85
    C69 77 66 68 62 62
    C68 65 74 63 78 59
    C76 51 72 42 66 37
    C72 33 78 27 78 20
    C72 18 64 22 58 28
    C56 20 54 11 50 4Z
  " fill="#E7271D"/>
</svg>
